<mxfile host="app.diagrams.net" modified="2023-11-08T02:20:41.849Z" agent="Mozilla/5.0 (Linux; Android 10; K) AppleWebKit/537.36 (KHTML, like Gecko) Chrome/118.0.0.0 Mobile Safari/537.36" version="22.0.8" etag="nz2h9cp0QjulqgxJ7fVx" type="github">
  <diagram name="Halaman-1" id="s5ZAHPKKK3FKAENe8b2f">
    <mxGraphModel>
      <root>
        <mxCell id="0" />
        <mxCell id="1" parent="0" />
      </root>
    </mxGraphModel>
  </diagram>
</mxfile>
